<?xml version="1.0" encoding="UTF-8"?>
<!DOCTYPE svg PUBLIC "-//W3C//DTD SVG 1.1//EN" "http://www.w3.org/Graphics/SVG/1.1/DTD/svg11.dtd">
<!-- Creator: CorelDRAW X8 -->
<svg xmlns="http://www.w3.org/2000/svg" xml:space="preserve" width="3508px" height="2480px" version="1.1" style="shape-rendering:geometricPrecision; text-rendering:geometricPrecision; image-rendering:optimizeQuality; fill-rule:evenodd; clip-rule:evenodd"
viewBox="0 0 3508 2480"
 xmlns:xlink="http://www.w3.org/1999/xlink">
 <defs>
  <style type="text/css">
   <![CDATA[
    .fil2 {fill:#3C2247}
    .fil0 {fill:black}
    .fil3 {fill:#00A0E3}
    .fil1 {fill:#12A13D}
    .fil4 {fill:#FF6600}
   ]]>
  </style>
 </defs>
 <g id="Layer_x0020_1">
  <metadata id="CorelCorpID_0Corel-Layer"/>
  <path class="fil0" d="M844 553c14,0 25,-12 25,-25 0,-2 -1,-3 -1,-5 4,4 8,9 10,19 0,-1 1,-1 2,-1 -2,1 -3,2 -4,3l-19 13 -29 0c-4,0 -7,1 -9,4l-12 15c-2,3 -6,7 -8,9l-8 12c-2,2 -2,5 -2,8 1,2 2,5 4,6 2,2 4,2 6,2 4,0 7,-1 9,-4l8 -11c0,0 0,0 0,0l-1 19 -15 70c-1,3 0,5 2,8 1,2 4,4 6,5 1,0 2,0 3,0 5,0 9,-4 10,-9l14 -65 4 0 2 22c0,3 0,8 0,10l-1 31c0,2 1,5 3,7 2,3 4,4 7,4 0,0 0,0 1,0 6,0 10,-5 11,-11l1 -30c0,-4 0,-9 -1,-13l-3 -32c0,0 0,-1 0,-1l4 -35 25 -17c3,-2 7,-6 10,-8l9 -9c4,-4 5,-11 1,-15 -2,-2 -5,-3 -8,-3 -3,0 -5,1 -7,3l-9 8c6,-9 0,-25 -21,-24 -4,-6 -11,-10 -19,-10 -8,0 -15,4 -19,10 -26,-2 -30,24 -15,29 2,-10 6,-16 10,-19 0,1 0,3 0,5 0,13 11,25 24,25z"/>
  <path class="fil0" d="M1240 603c2,3 6,5 10,5 2,0 5,-1 7,-2 3,-2 4,-5 5,-8 0,-4 0,-7 -2,-10l-10 -13c-3,-3 -7,-8 -9,-11l-15 -19c-2,-3 -5,-5 -9,-5 -1,0 -37,0 -37,0l-23 -15c-3,-2 -6,-5 -8,-6l-3 -3c-3,-3 -6,-4 -9,-4 -3,0 -6,2 -9,4 -2,3 -3,6 -3,9 0,3 1,6 4,9l3 3c3,2 7,6 11,8l30 21 4 42c0,0 0,0 0,0l-4 39c0,6 1,14 3,19l11 26c2,5 6,8 12,8 1,0 3,0 5,-1 3,-1 5,-4 7,-7 1,-3 1,-7 0,-10l-11 -26c0,-1 -1,-5 -1,-6l3 -26 4 0 6 29c1,5 5,10 9,13 3,1 6,2 9,2 3,0 5,0 7,-1l14 -5c6,-3 10,-10 7,-17 -1,-5 -6,-9 -12,-9 -1,0 -3,1 -4,1l-6 2 -6 -26 -2 -26c1,1 1,2 2,2l10 14zm-45 -68c16,0 29,-13 29,-29 0,-16 -13,-29 -29,-29 -16,0 -29,13 -29,29 0,16 13,29 29,29z"/>
  <g id="_991633151232">
  </g>
  <g id="_991633150592">
  </g>
  <g id="_991633150016">
  </g>
  <g id="_991633148416">
  </g>
  <g id="_991633148000">
  </g>
  <g id="_991633148512">
  </g>
  <g id="_991633149760">
  </g>
  <g id="_991633148352">
  </g>
  <g id="_991633148576">
  </g>
  <g id="_991633149728">
  </g>
  <g id="_991633147328">
  </g>
  <g id="_991633146880">
  </g>
  <g id="_991633146560">
  </g>
  <g id="_991633146336">
  </g>
  <g id="_991633147168">
  </g>
  <path class="fil0" d="M1063 520c0,-1 -25,-69 -36,-101 -7,-21 -19,-31 -36,-31 -22,0 -30,0 -53,0 -16,0 -28,10 -35,31 -11,32 -22,103 -22,104 -3,8 1,16 9,19 8,3 16,-1 19,-9 1,0 4,-50 16,-84 1,3 3,6 6,8l0 23 -26 66c-2,4 0,8 4,9 4,1 9,2 15,4l0 123c0,10 8,18 18,18 11,0 19,-8 19,-18l0 -115c2,0 5,0 8,0l0 115c0,10 8,18 18,18 10,0 19,-8 19,-18l0 -123c5,-2 10,-3 14,-4 4,-1 6,-5 5,-9l-27 -66 0 -23c3,-2 6,-5 7,-8 12,34 29,81 29,82 3,8 12,12 20,9 8,-3 12,-12 9,-20zm-65 -177c0,-18 -15,-33 -33,-33 -19,0 -34,15 -34,33 0,19 15,34 34,34 18,0 33,-15 33,-34z"/>
  <g id="_991633146528">
  </g>
  <g id="_991633153696">
  </g>
  <g id="_991633152096">
  </g>
  <g id="_991633152224">
  </g>
  <g id="_991633153248">
  </g>
  <g id="_991633152480">
  </g>
  <g id="_991633152448">
  </g>
  <g id="_991633152384">
  </g>
  <g id="_991631367056">
  </g>
  <g id="_991633842768">
  </g>
  <g id="_991555885328">
  </g>
  <g id="_991555884848">
  </g>
  <g id="_991555884656">
  </g>
  <g id="_991630317136">
  </g>
  <g id="_991630320432">
  </g>
  <g id="_991630321904">
  </g>
  <g id="_991630319312">
  </g>
  <g id="_991630318960">
  </g>
  <g id="_991630318416">
  </g>
  <g id="_991630318256">
  </g>
  <g id="_991633853760">
  </g>
  <g id="_991633855104">
  </g>
  <g id="_991633854528">
  </g>
  <g id="_991633853888">
  </g>
  <g id="_991633854048">
  </g>
  <g id="_991633854912">
  </g>
  <g id="_991633854560">
  </g>
  <g id="_991633851392">
  </g>
  <g id="_991633852608">
  </g>
  <g id="_991633849184">
  </g>
  <path class="fil0" d="M1120 309c0,-21 -16,-37 -36,-37 -21,0 -37,16 -37,37 0,20 16,36 37,36 20,0 36,-16 36,-36zm40 197c0,-1 4,-79 -8,-114 -8,-23 -21,-34 -39,-34 -25,0 -34,0 -59,0 -18,0 -31,11 -38,34 -13,35 -40,110 -40,111 -3,8 1,18 10,21 8,3 18,-1 21,-10 1,0 19,-52 33,-90l-1 256c0,11 9,20 20,20 11,0 20,-9 20,-20l0 -126c3,1 6,1 9,0l0 126c0,11 9,20 20,20 11,0 20,-9 20,-20l-1 -256c14,38 1,93 2,94 3,9 12,13 21,10 9,-3 13,-13 10,-22z"/>
  <path class="fil1" d="M1240 1297c2,3 6,5 10,5 2,0 5,-1 7,-2 3,-2 4,-5 5,-8 0,-4 0,-7 -2,-10l-10 -13c-3,-3 -7,-8 -9,-11l-15 -19c-2,-3 -5,-5 -9,-5 -1,0 -37,0 -37,0l-23 -15c-3,-2 -6,-5 -8,-6l-3 -3c-3,-3 -6,-4 -9,-4 -3,0 -6,2 -9,4 -2,3 -3,6 -3,9 0,3 1,6 4,9l3 3c3,2 7,6 11,8l30 21 4 42c0,0 0,0 0,0l-4 39c0,6 1,14 3,19l11 26c2,5 6,8 12,8 1,0 3,0 5,-1 3,-1 5,-4 7,-7 1,-3 1,-7 0,-10l-11 -26c0,-1 -1,-5 -1,-6l3 -26 4 0 6 29c1,5 5,10 9,13 3,1 6,2 9,2 3,0 5,0 7,-1l14 -5c6,-3 10,-10 7,-17 -1,-5 -6,-9 -12,-9 -1,0 -3,1 -4,1l-6 2 -6 -26 -2 -26c1,1 1,2 2,2l10 14zm-45 -68c16,0 29,-13 29,-29 0,-16 -13,-29 -29,-29 -16,0 -29,13 -29,29 0,16 13,29 29,29z"/>
  <path class="fil2" d="M1120 1003c0,-21 -16,-37 -36,-37 -21,0 -37,16 -37,37 0,20 16,36 37,36 20,0 36,-16 36,-36zm40 197c0,-1 4,-79 -8,-114 -8,-23 -21,-34 -39,-34 -25,0 -34,0 -59,0 -18,0 -31,11 -38,34 -13,35 -40,110 -40,111 -3,8 1,18 10,21 8,3 18,-1 21,-10 1,0 19,-52 33,-90l-1 256c0,11 9,20 20,20 11,0 20,-9 20,-20l0 -126c3,1 6,1 9,0l0 126c0,11 9,20 20,20 11,0 20,-9 20,-20l-1 -256c14,38 1,93 2,94 3,8 12,13 21,10 9,-3 13,-13 10,-22z"/>
  <path class="fil3" d="M1063 1214c0,-1 -25,-69 -36,-101 -7,-21 -19,-31 -36,-31 -22,0 -30,0 -53,0 -16,0 -28,10 -35,31 -11,32 -22,103 -22,104 -3,8 1,16 9,19 8,3 16,-1 19,-9 1,0 4,-50 16,-84 1,3 3,6 6,8l0 23 -26 66c-2,4 0,8 4,9 4,1 9,2 15,4l0 123c0,10 8,18 18,18 11,0 19,-8 19,-18l0 -115c2,0 5,0 8,0l0 115c0,10 8,18 18,18 10,0 19,-8 19,-18l0 -123c5,-2 10,-3 14,-4 4,-1 6,-5 5,-9l-27 -66 0 -23c3,-2 6,-5 7,-8 12,34 29,81 29,82 3,8 12,12 20,9 8,-3 12,-12 9,-20zm-65 -177c0,-18 -15,-33 -33,-33 -19,0 -34,15 -34,33 0,19 15,34 34,34 18,0 33,-15 33,-34z"/>
  <path class="fil4" d="M844 1246c14,0 25,-11 25,-24 0,-2 -1,-3 -1,-5 4,4 8,9 10,19 0,-1 1,-1 2,-1 -2,1 -3,2 -4,3l-19 13 -29 0c-4,0 -7,1 -9,4l-12 15c-2,3 -6,7 -8,9l-8 12c-2,2 -2,5 -2,8 1,2 2,5 4,6 2,2 4,2 6,2 4,0 7,-1 9,-4l8 -11c0,0 0,0 0,0l-1 19 -15 70c-1,3 0,5 2,8 1,2 4,4 6,5 1,0 2,0 3,0 5,0 9,-4 10,-9l14 -65 4 0 2 22c0,3 0,8 0,10l-1 31c0,2 1,5 3,7 2,3 4,4 7,4 0,0 0,0 1,0 6,0 10,-5 11,-11l1 -30c0,-4 0,-9 -1,-13l-3 -32c0,0 0,-1 0,-1l4 -35 25 -17c3,-2 7,-6 10,-8l9 -9c4,-4 5,-11 1,-15 -2,-2 -5,-3 -8,-3 -3,0 -5,1 -7,3l-9 8c6,-9 0,-25 -21,-24 -4,-6 -11,-10 -19,-10 -8,0 -15,4 -19,10 -26,-2 -30,24 -15,29 2,-10 6,-16 10,-19 0,1 0,3 0,5 0,13 11,24 24,24z"/>
 </g>
</svg>
